<?xml version="1.0" encoding="UTF-8" standalone="no"?>
<!DOCTYPE svg PUBLIC "-//W3C//DTD SVG 1.1//EN" "http://www.w3.org/Graphics/SVG/1.1/DTD/svg11.dtd">
<svg width="100%" height="100%" viewBox="0 0 746 425" version="1.1" xmlns="http://www.w3.org/2000/svg" xmlns:xlink="http://www.w3.org/1999/xlink" xml:space="preserve" xmlns:serif="http://www.serif.com/" style="fill-rule:evenodd;clip-rule:evenodd;stroke-linejoin:round;stroke-miterlimit:2;">
    <g transform="matrix(0.517168,0,0,0.517168,17.2425,86.9427)">
        <path d="M127.084,12.244L620.022,12.244L717.324,116.693L716.634,117.568L749.183,117.568L372.923,587.736L0.5,117.568L30.472,117.568L29.782,116.693L127.084,12.244ZM55.856,117.767L135.704,32.055L354.681,32.055L354.681,106.799L185.805,106.799L177.949,122.738C177.949,122.738 331.43,322.597 350.964,348.034C350.964,348.034 351.513,492.783 351.513,492.783C351.513,492.783 55.856,117.767 55.856,117.767ZM561.301,106.799L392.425,106.799C392.425,106.799 392.425,32.055 392.425,32.055L611.402,32.055L691.25,117.767C656.267,162.14 456.717,415.252 395.593,492.783C395.593,492.783 396.142,348.034 396.142,348.034C396.142,348.034 569.157,122.738 569.157,122.738L561.301,106.799Z" style="fill:white;"/>
    </g>
    <g transform="matrix(-0.768617,-0.768617,0.768617,-0.768617,336.615,1749.49)">
        <path d="M1207.08,1045.54C1138.53,1114.09 1028.17,1115.33 958.091,1049.29L950.467,1041.66C884.421,971.583 885.666,861.224 954.217,792.673C1024.04,722.848 1137.25,722.848 1207.08,792.673C1276.91,862.499 1276.91,975.71 1207.08,1045.54ZM1218.85,780.901C1142.52,704.574 1018.77,704.574 942.445,780.901C871.786,851.561 866.549,962.854 926.713,1039.55L873.005,1093.26C863.57,1092.93 854.028,1096.35 846.827,1103.56L734.229,1216.15C720.46,1229.92 720.46,1252.25 734.229,1266.02L734.23,1266.02C748,1279.79 770.324,1279.79 784.095,1266.02L896.691,1153.42C903.894,1146.22 907.32,1136.68 906.989,1127.24L960.753,1073.48C1037.43,1133.18 1148.36,1127.8 1218.85,1057.31C1295.18,980.98 1295.18,857.229 1218.85,780.901Z" style="fill:white;fill-rule:nonzero;"/>
    </g>
    <g transform="matrix(0.719814,0,0,0.719814,111.318,231.251)">
        <g transform="matrix(182.428,0,0,182.428,865.451,170.154)">
        </g>
        <text x="450.268px" y="170.154px" style="font-family:'HandelGothicBT-Regular', 'HandelGothic BT', fantasy;font-stretch:semi-expanded;font-size:182.428px;fill:white;">view</text>
    </g>
</svg>
