<?xml version="1.0" encoding="UTF-8" standalone="no"?>
<!DOCTYPE svg PUBLIC "-//W3C//DTD SVG 1.1//EN" "http://www.w3.org/Graphics/SVG/1.1/DTD/svg11.dtd">
<svg width="100%" height="100%" viewBox="0 0 92 93" version="1.1" xmlns="http://www.w3.org/2000/svg" xmlns:xlink="http://www.w3.org/1999/xlink" xml:space="preserve" xmlns:serif="http://www.serif.com/" style="fill-rule:evenodd;clip-rule:evenodd;stroke-linejoin:round;stroke-miterlimit:2;">
    <g transform="matrix(1,0,0,1,-101.514,-0.85498)">
        <path d="M185.556,74.791C185.656,75.42 185.19,76.03 184.618,76.302C184.046,76.574 183.389,76.59 182.757,76.599L180.862,76.628C180.228,75.371 181.424,73.878 182.752,73.429C184.08,72.98 185.545,73.132 186.892,72.732C184.792,72.67 182.739,72.085 180.919,71.028C179.909,70.441 178.471,69.769 177.747,70.689C177.229,71.348 177.541,72.409 177.008,73.058C176.36,73.847 175.065,73.394 174.297,72.722C173.551,72.064 172.946,71.261 172.518,70.361C172.399,70.105 172.291,69.812 172.387,69.547C172.483,69.283 172.884,69.137 173.051,69.364C172.2,68.323 171.914,66.935 171.239,65.771C170.711,64.862 169.962,64.11 169.22,63.369L165.649,59.801C165.411,59.563 165.147,59.313 164.815,59.268C164.482,59.224 166.173,62.224 167.172,63.415C167.838,64.087 168.253,64.971 168.344,65.916C168.49,66.7 168.638,67.484 168.788,68.267C168.868,68.698 168.936,69.159 168.746,69.555C168.408,70.227 167.318,70.71 167.673,71.375C166.413,70.155 164.752,69.444 163.005,69.375C163.596,70.161 164.208,71.159 163.803,72.061C163.435,72.875 162.375,73.134 161.502,72.954C159.366,72.533 158.102,70.395 156.679,68.741C155.45,67.315 153.949,66.157 152.46,65.009L147.408,61.115C146.494,61.79 146.255,63.058 146.255,64.199C146.255,65.339 146.42,66.518 146.034,67.592C145.869,68.051 145.608,68.471 145.416,68.92C145.001,69.892 144.906,71.001 144.341,71.893C143.819,72.722 142.613,73.245 141.856,72.713C141.794,72.669 141.737,72.619 141.686,72.564C140.973,71.821 141.433,70.631 141.686,69.629C142.049,68.215 141.894,66.722 142.017,65.266C142.139,63.811 142.641,62.244 143.883,61.484C144.145,61.325 144.439,61.198 144.631,60.959C145.101,60.372 144.715,59.518 144.403,58.833C144.108,58.187 144.003,57.242 144.569,56.9C144.606,56.877 144.644,56.858 144.684,56.842L144.585,56.702C144.576,56.695 144.567,56.689 144.557,56.684C144.09,56.406 144.091,55.73 144.341,55.211C144.382,55.119 144.432,55.032 144.489,54.949C144.887,54.417 145.486,54.035 145.77,53.434C146.008,52.931 145.997,52.329 146.289,51.856C146.954,50.78 148.592,51.082 149.712,51.666C150.555,52.112 151.434,52.748 151.559,53.696C151.724,54.967 150.478,55.926 149.383,56.585C149.888,56.586 150.388,56.483 150.851,56.282C151.314,56.08 151.731,55.784 152.075,55.413C152.716,54.711 153.058,53.789 153.581,52.992C154.925,50.942 157.411,49.806 158.569,47.64C159.267,49.485 161.091,50.64 162.9,51.409C164.708,52.178 166.656,52.722 168.202,53.936C168.202,53.936 166.567,51.433 165.326,50.49C165.03,50.267 164.713,50.065 164.495,49.766C164.287,49.479 164.19,49.125 164.223,48.771C164.293,48.044 164.915,47.463 165.606,47.232C166.296,47.002 167.044,47.057 167.767,47.141C171.28,47.553 174.687,48.607 177.822,50.252L178.04,50.188C175.486,46.309 170.989,43.795 166.366,43.67C165.4,43.643 164.371,43.696 163.549,43.189C162.727,42.682 162.366,41.332 163.141,40.763C163.36,40.604 163.641,40.525 163.818,40.317C163.995,40.109 163.966,39.695 163.689,39.668L159.715,42.328C159.486,42.477 159.233,42.639 158.959,42.617C158.712,42.595 158.504,42.43 158.312,42.27C157.436,41.546 156.49,40.681 156.444,39.544C156.383,38.057 157.846,37.029 159.132,36.298C156.666,36.467 154.844,38.599 153.333,40.562C152.835,41.207 152.327,41.866 152.044,42.632C151.729,43.479 151.698,44.416 151.304,45.237C150.911,46.058 149.925,46.716 149.131,46.289C148.337,45.863 148.326,44.702 148.637,43.848C148.947,42.995 149.472,42.16 149.376,41.258C148.518,41.362 147.955,42.186 147.54,42.946C146.246,45.311 145.042,48.051 142.577,49.113C142.598,49.248 142.622,49.382 142.648,49.516L142.219,49.326C141.836,48.151 141.919,46.872 142.45,45.757C142.729,45.174 143.127,44.649 143.337,44.04C143.547,43.43 143.563,42.752 143.574,42.097L143.645,37.178C143.665,35.794 143.68,34.375 143.229,33.067C142.957,32.277 142.522,31.553 142.239,30.768C141.44,28.552 141.907,26.102 142.386,23.795C142.41,23.68 142.435,23.566 142.459,23.451C142.661,22.486 142.902,21.518 143.405,20.678C144.108,19.512 145.864,18.711 146.766,19.729L146.84,19.955C147.368,20.592 147.284,21.53 147.152,22.349C147.021,23.169 146.812,24.018 147.056,24.81C148.255,24.215 148.171,22.41 149.092,21.438C149.577,20.925 150.334,20.66 150.64,20.022C150.797,19.697 150.81,19.318 150.96,18.989C151.223,18.405 151.847,18.097 152.428,17.823L152.639,17.747C152.637,17.974 152.703,18.195 152.828,18.383C152.953,18.571 153.132,18.716 153.34,18.8C153.742,18.949 154.211,18.857 154.6,19.041C155.771,19.593 155.032,21.817 156.179,22.416C156.754,22.714 157.572,22.427 158.028,22.889C158.221,23.085 158.291,23.371 158.414,23.619C159.314,25.429 162.335,24.547 163.772,25.965C163.53,24.657 162.007,24.126 160.963,23.307C159.284,21.987 158.745,19.668 157.328,18.064C155.838,16.372 153.535,15.648 151.309,15.345C149.459,15.093 147.182,14.805 146.507,13.055C146.803,13.816 146.167,14.701 145.378,14.903C144.588,15.105 143.751,14.796 143.062,14.371C141.86,13.635 140.696,12.485 139.299,12.674C139.299,13.532 140.058,14.176 140.383,14.968C141.032,16.553 139.967,18.709 140.767,20.045C139.379,19.254 138.085,17.758 137.437,16.399C136.297,14.005 133.88,9.135 133.88,9.135C131.82,5.463 127.681,3.592 123.812,1.967C121.654,1.062 119.024,0.199 117.125,1.572C116.05,2.349 115.312,3.79 113.992,3.896C113.643,3.924 113.284,3.848 112.945,3.937C112.283,4.111 111.925,4.861 111.888,5.548C111.851,6.235 112.036,6.917 112.056,7.605C112.084,8.837 111.613,9.868 110.726,10.579C110.669,10.624 110.613,10.667 110.556,10.709C110.19,10.728 109.823,10.711 109.461,10.657C108.926,10.566 108.559,10.637 108.027,10.805C107.731,10.897 107.9,11.149 107.867,11.367C107.824,11.665 107.603,11.861 107.375,12.03C106.992,12.314 106.578,12.561 106.18,12.824C105.265,13.402 104.41,14.071 103.628,14.821C102.314,16.125 100.929,18.876 101.772,19.942C101.938,20.152 102.569,20.064 102.834,20.034C103.011,20.013 103.183,19.636 103.331,19.481C103.414,19.395 103.638,19.547 103.721,19.46C103.803,19.519 103.894,19.563 103.99,19.59C104.238,19.649 104.498,19.635 104.738,19.549C105.093,20.433 105.849,21.36 106.414,21.759C106.632,21.888 106.869,21.98 107.116,22.033L107.326,22.077C107.394,22.077 107.402,22.091 107.345,22.11C107.372,22.18 107.301,22.357 107.307,22.44C107.338,22.946 107.798,23.256 108.252,23.36C108.843,23.496 109.328,23.32 109.846,23.716C110.289,24.056 110.906,24.443 111.308,24.403C111.71,24.363 112.361,23.841 112.679,23.604C112.847,23.479 113.084,23.044 113.294,23.033C113.504,23.023 113.761,23.374 113.911,23.496C114.06,23.618 114.326,23.864 114.65,23.729C114.78,23.679 114.905,23.617 115.024,23.543C116.651,22.543 116.855,20.538 116.651,18.796C116.394,16.619 115.536,14.558 114.172,12.848C114.221,12.708 114.271,12.569 114.32,12.43C114.912,10.832 115.72,9.271 117.221,8.575C117.601,8.398 118.024,8.278 118.324,7.98C119.671,6.66 117.167,3.835 118.672,2.66C118.916,2.479 119.204,2.368 119.505,2.339C119.807,2.31 120.111,2.365 120.384,2.497L126.935,5.509C128.134,6.059 129.36,6.63 130.294,7.564C131.058,8.33 131.585,9.295 132.101,10.248L137.95,21.039C138.237,21.567 138.53,22.122 138.542,22.723C138.569,23.897 137.526,24.92 137.637,26.089C137.572,26.452 137.473,26.809 137.341,27.153C137.303,26.728 137.279,26.301 137.276,25.872L137.208,25.83C136.396,24.863 135.459,24.008 134.422,23.289C134.346,23.245 134.281,23.183 134.235,23.108C134.147,22.929 134.283,22.728 134.382,22.555C134.933,21.573 134.264,20.375 133.618,19.454C133.914,19.188 134.299,19.047 134.696,19.059C135.092,19.071 135.469,19.236 135.747,19.52L135.381,19.074C135.288,18.685 135.062,18.342 134.742,18.106C134.421,17.87 134.028,17.755 133.632,17.783C133.236,17.811 132.862,17.98 132.578,18.259C132.294,18.538 132.117,18.91 132.08,19.307C132.031,19.825 132.218,20.369 132.034,20.855C131.787,21.511 130.983,21.758 130.285,21.759C129.51,21.753 128.748,21.56 128.062,21.195C127.377,20.831 126.79,20.305 126.349,19.664C126.261,20.876 126.122,22.083 125.932,23.283C125.864,23.708 125.784,24.154 125.512,24.492C125.24,24.829 124.78,25.029 124.402,25.287C123.461,25.93 122.961,27.081 122.84,28.218C122.719,29.355 122.923,30.5 123.127,31.624C123.207,32.063 123.294,32.517 123.557,32.878C123.752,33.144 124.029,33.336 124.249,33.583C124.85,34.253 124.95,35.218 125.218,36.081C125.485,36.943 126.132,37.853 127.028,37.811C126.891,35.301 126.753,32.792 126.614,30.282C126.596,29.943 126.586,29.57 126.793,29.3C127.199,28.767 128.123,29.094 128.419,29.696C128.715,30.298 128.61,31.009 128.597,31.681C128.573,33.111 128.998,34.512 129.811,35.687L130.254,36.02C129.796,33.721 131.468,31.398 131.029,29.095C130.851,28.172 130.343,27.336 130.182,26.408C130.02,25.481 130.381,24.327 131.292,24.108C131.94,23.96 132.623,24.357 132.991,24.911C133.359,25.466 133.503,26.142 133.631,26.799C133.685,27.072 133.736,27.365 133.631,27.62C133.291,28.393 132.117,28.81 132.865,29.922C132.956,30.041 133.074,30.137 133.209,30.2C133.344,30.263 133.493,30.291 133.642,30.283C135.157,30.261 136.11,29.101 137.607,30.283C137.746,30.394 137.876,30.514 137.998,30.643C138.625,31.303 139.024,32.175 139.37,33.022C140.37,35.493 141.124,38.165 140.757,40.807C140.451,43.018 139.369,45.177 139.734,47.379C139.882,48.271 140.272,49.126 140.407,50.029C140.59,51.254 140.299,52.496 140.009,53.7L138.362,60.572C138.146,61.473 137.551,63.954 137.59,64.884C137.659,66.569 138.512,68.471 137.661,69.84C137.61,69.924 137.553,70.004 137.491,70.079C137.437,70.159 137.367,70.225 137.285,70.275C137.204,70.324 137.112,70.355 137.017,70.365C136.649,70.365 136.503,69.885 136.503,69.516C136.503,67.898 137.232,66.151 136.438,64.745C135.867,63.736 134.663,63.235 134.048,62.253C133.398,61.212 133.578,59.777 134.276,58.76C134.974,57.743 136.102,57.096 137.272,56.72L134.039,57.251C132.633,57.481 131.106,57.777 130.177,58.864C129.825,59.277 129.571,59.793 129.111,60.079C128.104,60.705 126.782,59.851 126.195,58.818C125.908,58.314 125.703,57.753 125.32,57.319C124.137,55.981 121.972,56.427 120.332,57.13C121.019,57.254 121.671,57.526 122.244,57.927C122.816,58.329 123.295,58.85 123.647,59.456C123.959,60 124.166,60.645 124.039,61.258C123.912,61.87 123.371,62.428 122.747,62.409C122.426,62.398 122.107,62.247 121.793,62.317C121.335,62.42 121.104,62.957 121.104,63.432C121.104,63.906 121.259,64.368 121.252,64.841C121.199,66.796 118.456,67.9 118.515,69.855L115.96,69.953C116.667,70.936 117.715,72.035 118.863,71.675C119.221,71.533 119.547,71.321 119.822,71.05L123.788,67.644C123.965,67.495 124.183,67.327 124.412,67.376C124.551,67.421 124.673,67.505 124.764,67.62C125.719,68.654 126.251,70.011 126.254,71.422C126.58,69.107 127.792,67.012 129.632,65.582C130.372,67.758 130.543,70.089 130.13,72.351C130.664,71.817 131.24,71.326 131.851,70.884C132.133,71.126 132.352,71.434 132.489,71.781C132.625,72.129 132.674,72.504 132.632,72.875L132.685,73.264C133.316,74.558 133.664,75.346 133.958,76.76C134.967,76.692 135.954,77.175 136.62,77.935C137.102,78.471 137.388,79.155 137.433,79.876L136.918,79.743C136.793,81.277 136.801,82.819 136.942,84.352C136.994,84.899 137.06,85.458 136.942,85.988C136.838,86.382 136.686,86.761 136.488,87.118L134.7,90.671L139.817,85.427C139.225,83.328 139.506,81.054 140.429,79.085C141.351,77.117 142.892,75.484 144.854,74.604C146.059,74.063 147.492,73.699 148.159,72.555C148.473,72.02 148.564,71.386 148.65,70.771C148.785,69.8 149.031,67.837 149.031,67.837C149.633,70.283 152.024,71.98 152.594,74.433C153.212,77.1 151.505,79.934 152.248,82.574C152.449,83.239 152.797,83.849 153.267,84.36C153.737,84.87 154.315,85.266 154.959,85.519C154.799,85.391 154.669,85.229 154.578,85.045C154.487,84.861 154.437,84.659 154.433,84.453C154.426,83.848 154.721,83.286 155.008,82.754C155.277,82.253 155.626,81.695 156.191,81.619C156.692,81.551 157.145,81.905 157.512,82.255C158.775,83.462 159.81,84.89 160.566,86.468C161.01,87.402 161.374,88.401 162.057,89.18C162.74,89.959 163.873,90.459 164.819,90.045C162.783,88.347 162.01,84.927 163.833,83.005C164.572,82.617 165.527,82.991 166.091,83.616C166.654,84.24 166.938,85.061 167.274,85.833C168.13,87.791 169.397,89.535 170.655,91.263C171.247,92.066 171.906,92.925 172.873,93.15C172.199,91.238 171.525,89.326 170.852,87.415C170.743,87.179 170.704,86.916 170.741,86.658C170.901,86.014 171.813,85.971 172.289,85.512C172.897,84.917 172.626,83.845 173.097,83.14C173.638,82.328 174.843,82.397 175.773,82.684C175.773,82.684 179.705,82.734 180.652,81.108C180.837,80.786 180.984,80.431 181.265,80.192C181.776,79.759 182.555,79.866 183.163,80.147C183.771,80.428 184.315,80.856 184.961,81.03C186.162,81.353 187.549,80.584 187.919,79.395L192.526,81.24C190.567,80.244 187.157,75.565 185.556,74.791ZM116.09,18.642C116.276,19.764 116.118,22.43 114.629,23.088C114.097,23.323 113.395,21.93 112.679,22.361C112.41,22.522 112.513,22.818 112.3,23.048C112.207,23.151 111.48,23.534 111.392,23.643C111.089,24.001 109.98,22.841 109.696,22.77C109.315,22.676 108.423,22.992 108.354,22.453C108.321,22.193 108.664,21.619 108.484,21.381C108.349,21.204 106.71,21.066 106.578,20.984C105.815,20.492 106.43,19.328 105.59,18.999C105.245,18.881 104.888,18.801 104.526,18.762C104.354,18.748 104.067,18.217 103.896,18.232C103.6,18.259 102.668,18.932 102.393,19.237C102.318,17.572 103.913,15.342 104.802,14.555C105.394,14.033 106.85,13.108 107.722,12.53C108.314,12.142 108.658,12.109 109.04,11.525C109.069,11.465 109.117,11.416 109.176,11.386C109.235,11.356 109.303,11.346 109.368,11.358C109.738,11.355 110.107,11.317 110.47,11.247C110.866,11.601 111.061,12.121 111.252,12.622L112.809,11.568C112.785,11.978 112.884,12.386 113.091,12.74L113.328,12.918C113.071,13.076 113.152,13.168 113.288,13.278C114.999,14.683 115.771,16.716 116.09,18.642Z" style="fill-rule:nonzero;"/>
    </g>
</svg>
